<?xml version="1.0"?><svg version="1.2" baseProfile="tiny-ps" viewBox="0 0 300 300" xmlns="http://www.w3.org/2000/svg" xmlns:xlink="http://www.w3.org/1999/xlink"><title>Chelleon</title><g><g transform="matrix(.1 0 0 -.1 0 300)"><path d="m1143 2047-352-612-25-75-25-75-11-88-11-88 11-82c6-44 22-115 35-156l24-76 45-76 45-76 68-70 68-70 64-41c78-51 195-97 286-113l68-12 111 6 111 5 70 22c243 76 427 257 511 502l24 71 10 83 11 84-11 88-11 87-25 75-25 75-252 437-252 437-6-7c-14-15-573-989-591-1030-11-23-23-68-28-99l-10-57 11-65 10-64 25-54 25-53 51-55 50-55 71-35 72-35 58-6 57-7v22c0 31-36 97-62 116-13 9-48 32-79 50l-56 35-28 39c-15 22-33 57-41 78l-13 38v90l17 46c9 25 116 217 237 427l220 382 9-3c8-3 252-417 342-583l44-81 20-78 20-78v-144l-20-77-19-77-38-72-37-72-76-76-75-76-86-42-86-43-96-16-97-15-97 15-96 16-86 43-86 42-75 76-75 76-38 72-38 72-19 77-20 77v144l19 76c25 97 16 79 344 647l281 485 13 60 13 60-10 53c-8 44-25 93-33 92-1-1-160-276-354-613z"/></g></g></svg>